<svg xmlns="http://www.w3.org/2000/svg" width="57" height="57" fill="none"><rect width="57" height="57" fill="#10B982" fill-opacity=".18" rx="16"/><path fill="#10B982" d="M26.5 10.155a4 4 0 0 1 4 0l12.888 7.44a4 4 0 0 1 2 3.464v14.882a4 4 0 0 1-2 3.464L30.5 46.845a4 4 0 0 1-4 0l-12.887-7.44a4 4 0 0 1-2-3.464V21.059a4 4 0 0 1 2-3.464l12.887-7.44Z"/><mask id="a" width="35" height="39" x="11" y="9" maskUnits="userSpaceOnUse" style="mask-type:alpha"><path fill="#10B982" d="M26.5 10.155a4 4 0 0 1 4 0l12.888 7.44a4 4 0 0 1 2 3.464v14.882a4 4 0 0 1-2 3.464L30.5 46.845a4 4 0 0 1-4 0l-12.887-7.44a4 4 0 0 1-2-3.464V21.059a4 4 0 0 1 2-3.464l12.887-7.44Z"/></mask><g mask="url(#a)"><path fill="#7DE6C3" d="M28.5 28.5 12 38l-.5.5 2 5 2 4 12.5 1 7-.5 11.5-9-18-10.5Z"/><path fill="#94F0D2" d="M28.5 28.5 11.675 18 8 40.5l20.5-12Z"/><path fill="#3AD3A1" d="M28.5 28.5 45.325 18 49 40.5l-20.5-12Z"/></g></svg>