<svg xmlns="http://www.w3.org/2000/svg" width="57" height="57" fill="none"><rect width="57" height="57" fill="#10B982" fill-opacity=".18" rx="16"/><path fill="#10B982" fill-opacity=".4" d="M46.014 24.168 43.609 41.21a1.384 1.384 0 0 1-1.383 1.093H15.709a1.384 1.384 0 0 1-1.383-1.093l-2.294-17.043a1.384 1.384 0 0 1 1.965-1.537l7.082 3.917 6.698-11.846a1.384 1.384 0 0 1 2.408 0l6.699 11.86 7.137-3.944a1.384 1.384 0 0 1 1.993 1.55Z"/><mask id="a" width="35" height="29" x="12" y="14" maskUnits="userSpaceOnUse" style="mask-type:alpha"><path fill="#10B982" d="M46.014 24.168 43.609 41.21a1.384 1.384 0 0 1-1.383 1.093H15.709a1.384 1.384 0 0 1-1.383-1.093l-2.294-17.043a1.384 1.384 0 0 1 1.965-1.537l7.082 3.917 6.698-11.846a1.384 1.384 0 0 1 2.408 0l6.699 11.86 7.137-3.944a1.384 1.384 0 0 1 1.993 1.55Z"/></mask><g mask="url(#a)"><path fill="#10B982" d="m29 12.5-17.5 31 36 2-18.5-33Z"/></g></svg>